<?xml version="1.0" encoding="UTF-8" standalone="no"?>
<!DOCTYPE svg PUBLIC "-//W3C//DTD SVG 1.1//EN" "http://www.w3.org/Graphics/SVG/1.1/DTD/svg11.dtd">
<svg width="100%" height="100%" viewBox="0 0 16 16" version="1.1" xmlns="http://www.w3.org/2000/svg" xmlns:xlink="http://www.w3.org/1999/xlink" xml:space="preserve" xmlns:serif="http://www.serif.com/" style="fill-rule:evenodd;clip-rule:evenodd;stroke-linejoin:round;stroke-miterlimit:2;">
    <g transform="matrix(1,0,0,1,-95,0)">
        <g id="Frameworks" transform="matrix(1,0,0,1,-63.6667,0)">
            <rect x="158.667" y="0" width="16" height="16" style="fill:none;"/>
            <g transform="matrix(1.16667,0,0,1.16667,-86.5,-1.33333)">
                <path d="M217.584,2.028C217.196,1.991 216.804,1.991 216.416,2.028L216.359,3.616C216.018,3.666 215.684,3.756 215.364,3.883L214.52,2.537C214.165,2.698 213.826,2.893 213.509,3.12L214.253,4.524C213.982,4.738 213.738,4.982 213.524,5.253L212.12,4.509C211.893,4.826 211.698,5.165 211.537,5.52L212.883,6.364C212.756,6.684 212.666,7.018 212.616,7.359L211.028,7.416C210.991,7.804 210.991,8.196 211.028,8.584L212.616,8.641C212.666,8.982 212.756,9.316 212.883,9.636L211.537,10.48C211.698,10.835 211.893,11.174 212.12,11.491L213.524,10.747C213.738,11.018 213.982,11.262 214.253,11.476L213.509,12.88C213.826,13.107 214.165,13.302 214.52,13.463L215.364,12.117C215.684,12.244 216.018,12.334 216.359,12.384L216.416,13.972C216.804,14.009 217.196,14.009 217.584,13.972L217.641,12.384C217.982,12.334 218.316,12.244 218.636,12.117L219.48,13.463C219.835,13.302 220.174,13.107 220.491,12.88L219.747,11.476C220.018,11.262 220.262,11.018 220.476,10.747L221.88,11.491C222.107,11.174 222.302,10.835 222.463,10.48L221.117,9.636C221.244,9.316 221.334,8.982 221.384,8.641L222.972,8.584C223.009,8.196 223.009,7.804 222.972,7.416L221.384,7.359C221.334,7.018 221.244,6.684 221.117,6.364L222.463,5.52C222.302,5.165 222.107,4.826 221.88,4.509L220.476,5.253C220.262,4.982 220.018,4.738 219.747,4.524L220.491,3.12C220.174,2.893 219.835,2.698 219.48,2.537L218.636,3.883C218.316,3.756 217.982,3.666 217.641,3.616L217.584,2.028ZM217,4.549C218.905,4.549 220.451,6.095 220.451,8C220.451,9.905 218.905,11.451 217,11.451C215.095,11.451 213.549,9.905 213.549,8C213.549,6.095 215.095,4.549 217,4.549Z" style="fill:rgb(110,110,110);"/>
            </g>
        </g>
    </g>
</svg>
