<?xml version="1.0" encoding="UTF-8" standalone="no"?>
<!DOCTYPE svg PUBLIC "-//W3C//DTD SVG 1.1//EN" "http://www.w3.org/Graphics/SVG/1.1/DTD/svg11.dtd">
<svg width="100%" height="100%" viewBox="0 0 16 16" version="1.1" xmlns="http://www.w3.org/2000/svg" xmlns:xlink="http://www.w3.org/1999/xlink" xml:space="preserve" xmlns:serif="http://www.serif.com/" style="fill-rule:evenodd;clip-rule:evenodd;stroke-linejoin:round;stroke-miterlimit:2;">
    <g transform="matrix(1,0,0,1,-76,0)">
        <g id="Macro-Scripting" serif:id="Macro Scripting" transform="matrix(1,0,0,1,-63.6667,0)">
            <rect x="139.667" y="0" width="16" height="16" style="fill:none;"/>
            <g transform="matrix(0.544333,0,0,0.938152,65.3459,0.29015)">
                <text x="136px" y="13px" style="font-family:'FiraCodeNerdFontComplete-Medium', 'FiraCode NF';font-weight:500;font-size:13.333px;fill:rgb(56,159,214);">[</text>
                <text x="158.154px" y="13px" style="font-family:'FiraCodeNerdFontComplete-Medium', 'FiraCode NF';font-weight:500;font-size:13.333px;fill:rgb(56,159,214);">]</text>
            </g>
            <g transform="matrix(-0.852631,-0.852631,0.526403,-0.526403,128.149,39.9286)">
                <path d="M7.25,41.246L8.5,43.246L6,43.246L7.25,41.246Z" style="fill:rgb(110,110,110);"/>
            </g>
            <g transform="matrix(0.763776,0,0,0.763776,142.139,-27.6682)">
                <path d="M3.605,47.605L6.395,50.395L11.395,45.395L8.605,42.605L3.605,47.605Z" style="fill:rgb(110,110,110);"/>
            </g>
            <g transform="matrix(-0.710526,-0.710526,0.106874,-0.106874,151.471,15.1179)">
                <path d="M9,46.246C9,45.142 8.865,44.246 8.699,44.246L6.301,44.246C6.135,44.246 6,45.142 6,46.246L6,50.246C6,51.35 6.135,52.246 6.301,52.246L8.699,52.246C8.865,52.246 9,51.35 9,50.246L9,46.246Z" style="fill:rgb(110,110,110);"/>
            </g>
            <g transform="matrix(-0.710526,-0.710526,0.0684,-0.0684,152.98,13.6094)">
                <rect x="6" y="44.246" width="3" height="8" style="fill:rgb(110,110,110);"/>
            </g>
            <g transform="matrix(0.710526,0.710526,-0.0577204,0.0577204,142.419,2.63775)">
                <rect x="6" y="44.246" width="3" height="8" style="fill:rgb(110,110,110);"/>
            </g>
        </g>
    </g>
</svg>
