<?xml version="1.0" encoding="UTF-8" standalone="no"?>
<!DOCTYPE svg PUBLIC "-//W3C//DTD SVG 1.1//EN" "http://www.w3.org/Graphics/SVG/1.1/DTD/svg11.dtd">
<svg width="100%" height="100%" viewBox="0 0 16 16" version="1.1" xmlns="http://www.w3.org/2000/svg" xmlns:xlink="http://www.w3.org/1999/xlink" xml:space="preserve" xmlns:serif="http://www.serif.com/" style="fill-rule:evenodd;clip-rule:evenodd;stroke-linejoin:round;stroke-miterlimit:2;">
    <g transform="matrix(1,0,0,1,0,-19)">
        <g id="Show-Token-Names" serif:id="Show Token Names" transform="matrix(1,0,0,1,-177.667,19)">
            <rect x="177.667" y="0" width="16" height="16" style="fill:none;"/>
            <g transform="matrix(0.888889,0,0,0.888889,146.111,-4.22222)">
                <path d="M44.5,7C46.984,7 49,9.016 49,11.5C49,13.984 46.984,16 44.5,16C42.016,16 40,13.984 40,11.5C40,9.016 42.016,7 44.5,7ZM44.5,8.125C46.363,8.125 47.875,9.637 47.875,11.5C47.875,13.363 46.363,14.875 44.5,14.875C42.637,14.875 41.125,13.363 41.125,11.5C41.125,9.637 42.637,8.125 44.5,8.125Z" style="fill:rgb(110,110,110);"/>
            </g>
            <g transform="matrix(1,0,0,1,177.667,-19)">
                <rect x="2" y="30" width="12" height="3" style="fill:rgb(56,159,214);"/>
            </g>
        </g>
    </g>
</svg>
