<?xml version="1.0" encoding="UTF-8" standalone="no"?>
<!DOCTYPE svg PUBLIC "-//W3C//DTD SVG 1.1//EN" "http://www.w3.org/Graphics/SVG/1.1/DTD/svg11.dtd">
<svg width="100%" height="100%" viewBox="0 0 16 16" version="1.1" xmlns="http://www.w3.org/2000/svg" xmlns:xlink="http://www.w3.org/1999/xlink" xml:space="preserve" xmlns:serif="http://www.serif.com/" style="fill-rule:evenodd;clip-rule:evenodd;stroke-miterlimit:10;">
    <g transform="matrix(1,0,0,1,-19,0)">
        <g id="Tutorials" transform="matrix(1,0,0,1,-63.6667,0)">
            <rect x="82.667" y="0" width="16" height="16" style="fill:none;"/>
            <clipPath id="_clip1">
                <rect x="82.667" y="0" width="16" height="16"/>
            </clipPath>
            <g clip-path="url(#_clip1)">
                <g transform="matrix(1,0,0,1,63.6667,1)">
                    <path d="M27,1L34,4.5L27,8L20,4.5L27,1Z" style="fill:rgb(110,110,110);"/>
                </g>
                <g transform="matrix(1,0,0,2.66667,63.1667,-8.33333)">
                    <g transform="matrix(1,-0,-0,0.375,19.5,3.125)">
                        <path d="M12.75,12.5L13.5,11.375L14.25,12.5L12.75,12.5Z" style="fill:rgb(110,110,110);stroke:rgb(110,110,110);stroke-width:1px;"/>
                        <path d="M13.5,11.375L13.5,5" style="fill:none;stroke:rgb(110,110,110);stroke-width:1px;stroke-miterlimit:3;"/>
                    </g>
                </g>
                <g transform="matrix(0.75,0,0,0.75,70.4167,3.3125)">
                    <path d="M31,8L27,10L23,8L23,14.25L31,14.25L31,8Z" style="fill:rgb(110,110,110);"/>
                </g>
            </g>
        </g>
    </g>
</svg>
