<?xml version="1.0" encoding="UTF-8" standalone="no"?>
<!DOCTYPE svg PUBLIC "-//W3C//DTD SVG 1.1//EN" "http://www.w3.org/Graphics/SVG/1.1/DTD/svg11.dtd">
<svg width="100%" height="100%" viewBox="0 0 17 16" version="1.1" xmlns="http://www.w3.org/2000/svg" xmlns:xlink="http://www.w3.org/1999/xlink" xml:space="preserve" xmlns:serif="http://www.serif.com/" style="fill-rule:evenodd;clip-rule:evenodd;stroke-linejoin:round;stroke-miterlimit:2;">
    <g transform="matrix(1,0,0,1,-19,-171)">
        <g id="All" transform="matrix(1,0,0,1,-70.9031,171)">
            <rect x="90" y="0" width="16" height="16" style="fill:none;"/>
            <g transform="matrix(0.875,0,0,0.875,75.25,-178.27)">
                <path d="M22.006,216.852C22.002,216.817 22,216.782 22,216.747C22,214.539 23.792,212.747 26,212.747C28.208,212.747 30,214.539 30,216.747C30,216.782 29.997,216.817 29.993,216.852L30,216.852L30,218.852L22,218.852L22,216.852L22.006,216.852ZM26,207.923C27.104,207.923 28,208.82 28,209.923C28,211.027 27.104,211.923 26,211.923C24.896,211.923 24,211.027 24,209.923C24,208.82 24.896,207.923 26,207.923Z" style="fill:rgb(110,110,110);"/>
            </g>
            <g transform="matrix(0.875,0,0,0.875,75.25,-178.27)">
                <path d="M28.666,211.511C29.083,211.363 29.532,211.283 30,211.283C32.208,211.283 34,213.075 34,215.283C34,215.318 33.997,215.353 33.993,215.387L34,215.387L34,217.387L32.104,217.387C32.006,214.949 30.476,212.877 28.334,211.99C28.459,211.842 28.57,211.682 28.666,211.511ZM28.108,207.81C28.378,207.024 29.123,206.459 30,206.459C31.104,206.459 32,207.355 32,208.459C32,209.563 31.104,210.459 30,210.459C29.656,210.459 29.331,210.372 29.048,210.218C29.053,210.153 29.055,210.087 29.055,210.02C29.055,209.151 28.691,208.366 28.108,207.81Z" style="fill:rgb(110,110,110);"/>
            </g>
            <g transform="matrix(0.875,0,0,0.875,75.25,-178.27)">
                <path d="M19.896,217.387L18,217.387L18,215.387L18.006,215.387C18.002,215.353 18,215.318 18,215.283C18,213.075 19.792,211.283 22,211.283C22.468,211.283 22.917,211.363 23.334,211.511C23.43,211.681 23.541,211.842 23.666,211.99C21.524,212.878 19.994,214.949 19.896,217.387ZM22.952,210.218C22.669,210.372 22.344,210.459 22,210.459C20.896,210.459 20,209.563 20,208.459C20,207.355 20.896,206.459 22,206.459C22.877,206.459 23.622,207.024 23.892,207.81C23.309,208.366 22.945,209.151 22.945,210.02C22.945,210.087 22.947,210.153 22.952,210.218Z" style="fill:rgb(110,110,110);"/>
            </g>
        </g>
    </g>
</svg>
