<?xml version="1.0" encoding="UTF-8" standalone="no"?>
<!DOCTYPE svg PUBLIC "-//W3C//DTD SVG 1.1//EN" "http://www.w3.org/Graphics/SVG/1.1/DTD/svg11.dtd">
<svg width="100%" height="100%" viewBox="0 0 16 16" version="1.1" xmlns="http://www.w3.org/2000/svg" xmlns:xlink="http://www.w3.org/1999/xlink" xml:space="preserve" xmlns:serif="http://www.serif.com/" style="fill-rule:evenodd;clip-rule:evenodd;stroke-linejoin:round;stroke-miterlimit:2;">
    <g transform="matrix(1,0,0,1,-114,-95)">
        <g id="Blast-Template" serif:id="Blast Template" transform="matrix(1,0,0,1,24,95)">
            <rect x="90" y="0" width="16" height="16" style="fill:none;"/>
            <g transform="matrix(0.666667,0,0,0.666667,63.6667,-7.41524)">
                <circle cx="44" cy="30.623" r="3" style="fill:rgb(56,159,214);"/>
            </g>
            <g transform="matrix(1.67385,0,0,1.67385,56.5153,-163.309)">
                <path d="M28.966,98.162L22.992,98.162L22.992,104.136L28.966,104.136L28.966,98.162ZM27.771,99.357L27.771,102.941C27.771,102.941 24.187,102.941 24.187,102.941C24.187,102.941 24.187,99.357 24.187,99.357L27.771,99.357Z" style="fill:rgb(110,110,110);"/>
            </g>
        </g>
    </g>
</svg>
