<?xml version="1.0" encoding="UTF-8" standalone="no"?>
<!DOCTYPE svg PUBLIC "-//W3C//DTD SVG 1.1//EN" "http://www.w3.org/Graphics/SVG/1.1/DTD/svg11.dtd">
<svg width="100%" height="100%" viewBox="0 0 16 16" version="1.1" xmlns="http://www.w3.org/2000/svg" xmlns:xlink="http://www.w3.org/1999/xlink" xml:space="preserve" xmlns:serif="http://www.serif.com/" style="fill-rule:evenodd;clip-rule:evenodd;stroke-linejoin:round;stroke-miterlimit:2;">
    <g transform="matrix(1,0,0,1,-95,-95)">
        <g id="Burst-Template" serif:id="Burst Template" transform="matrix(1,0,0,1,5,95)">
            <rect x="90" y="0" width="16" height="16" style="fill:none;"/>
            <g transform="matrix(0.666667,0,0,0.666667,68.6667,-12.4217)">
                <circle cx="44" cy="30.623" r="3" style="fill:rgb(56,159,214);"/>
            </g>
            <g transform="matrix(2.34339,0,0,2.34124,37.1214,-228.821)">
                <path d="M28.966,98.162L22.992,98.162L22.992,104.136L28.966,104.136L28.966,98.162ZM28.112,99.016L28.112,103.282C28.112,103.282 23.845,103.282 23.845,103.282C23.845,103.282 23.845,99.016 23.845,99.016L28.112,99.016Z" style="fill:rgb(110,110,110);"/>
            </g>
        </g>
    </g>
</svg>
