<?xml version="1.0" encoding="UTF-8" standalone="no"?>
<!DOCTYPE svg PUBLIC "-//W3C//DTD SVG 1.1//EN" "http://www.w3.org/Graphics/SVG/1.1/DTD/svg11.dtd">
<svg width="100%" height="100%" viewBox="0 0 16 16" version="1.1" xmlns="http://www.w3.org/2000/svg" xmlns:xlink="http://www.w3.org/1999/xlink" xml:space="preserve" xmlns:serif="http://www.serif.com/" style="fill-rule:evenodd;clip-rule:evenodd;stroke-linejoin:round;stroke-miterlimit:2;">
    <g transform="matrix(1,0,0,1,-114,-133)">
        <g id="Draw-Hollow-Oval" serif:id="Draw Hollow Oval" transform="matrix(1,0,0,1,24,133)">
            <rect x="90" y="0" width="16" height="16" style="fill:none;"/>
            <g transform="matrix(1,0,0,1,33,-171)">
                <path d="M65,173C68.311,173 71,175.689 71,179C71,182.311 68.311,185 65,185C61.689,185 59,182.311 59,179C59,175.689 61.689,173 65,173ZM65,175C67.208,175 69,176.792 69,179C69,181.208 67.208,183 65,183C62.792,183 61,181.208 61,179C61,176.792 62.792,175 65,175Z" style="fill:rgb(110,110,110);"/>
            </g>
        </g>
    </g>
</svg>
