<?xml version="1.0" encoding="UTF-8" standalone="no"?>
<!DOCTYPE svg PUBLIC "-//W3C//DTD SVG 1.1//EN" "http://www.w3.org/Graphics/SVG/1.1/DTD/svg11.dtd">
<svg width="100%" height="100%" viewBox="0 0 16 16" version="1.1" xmlns="http://www.w3.org/2000/svg" xmlns:xlink="http://www.w3.org/1999/xlink" xml:space="preserve" xmlns:serif="http://www.serif.com/" style="fill-rule:evenodd;clip-rule:evenodd;stroke-miterlimit:3;">
    <g transform="matrix(1,0,0,1,-38,-57)">
        <g id="Draw-Straight-Lines" serif:id="Draw Straight Lines" transform="matrix(1,0,0,1,-52,57)">
            <rect x="90" y="0" width="16" height="16" style="fill:none;"/>
            <clipPath id="_clip1">
                <rect x="90" y="0" width="16" height="16"/>
            </clipPath>
            <g clip-path="url(#_clip1)">
                <g transform="matrix(-0.820672,-0.820672,0.506671,-0.506671,77.0643,36.7672)">
                    <path d="M7.25,41.246L8.5,43.246L6,43.246L7.25,41.246Z" style="fill:rgb(56,159,214);"/>
                </g>
                <g transform="matrix(1,0,0,1,71,-57)">
                    <path d="M21.541,64.34L23.592,66.391L27.842,62.142L25.79,60.09L21.541,64.34ZM26,62C26.276,62.276 26.052,62.948 25.5,63.5C24.948,64.052 24.276,64.276 24,64C23.724,63.724 23.948,63.052 24.5,62.5C25.052,61.948 25.724,61.724 26,62Z" style="fill:rgb(110,110,110);"/>
                </g>
                <g transform="matrix(-0.683893,-0.683893,0.0907447,-0.0907447,99.6187,12.5715)">
                    <rect x="6" y="44.246" width="3" height="8" style="fill:rgb(56,159,214);"/>
                </g>
                <g transform="matrix(1,0,0,1,72,-55.8686)">
                    <path d="M20.541,66.869L25,69.643L26.71,64.775L32.266,66.195L31.663,58.869" style="fill:none;stroke:rgb(56,159,214);stroke-width:1.33px;"/>
                </g>
            </g>
        </g>
    </g>
</svg>
