<?xml version="1.0" encoding="UTF-8" standalone="no"?>
<!DOCTYPE svg PUBLIC "-//W3C//DTD SVG 1.1//EN" "http://www.w3.org/Graphics/SVG/1.1/DTD/svg11.dtd">
<svg width="100%" height="100%" viewBox="0 0 16 16" version="1.1" xmlns="http://www.w3.org/2000/svg" xmlns:xlink="http://www.w3.org/1999/xlink" xml:space="preserve" xmlns:serif="http://www.serif.com/" style="fill-rule:evenodd;clip-rule:evenodd;stroke-linejoin:round;stroke-miterlimit:2;">
    <g transform="matrix(1,0,0,1,-57,-133)">
        <g id="Draw-Freehand" serif:id="Draw Freehand" transform="matrix(1,0,0,1,-33,133)">
            <rect x="90" y="0" width="16" height="16" style="fill:none;"/>
            <g transform="matrix(1,0,0,1,36,-130.36)">
                <path d="M62,144.36C58,144.36 56,142.36 56,137.36C56,135.36 58,132.36 62,132.36C66,132.36 67,133.36 67,133.36C63,133.86 61,133.36 61,136.36C61,140.36 68,133.36 68,141.36C68,144.36 64.108,144.36 62,144.36Z" style="fill:rgb(110,110,110);"/>
            </g>
        </g>
    </g>
</svg>
