<?xml version="1.0" encoding="UTF-8" standalone="no"?>
<!DOCTYPE svg PUBLIC "-//W3C//DTD SVG 1.1//EN" "http://www.w3.org/Graphics/SVG/1.1/DTD/svg11.dtd">
<svg width="100%" height="100%" viewBox="0 0 16 16" version="1.1" xmlns="http://www.w3.org/2000/svg" xmlns:xlink="http://www.w3.org/1999/xlink" xml:space="preserve" xmlns:serif="http://www.serif.com/" style="fill-rule:evenodd;clip-rule:evenodd;stroke-linejoin:round;stroke-miterlimit:2;">
    <rect id="Interaction-Tools" serif:id="Interaction Tools" x="0" y="0" width="16" height="16" style="fill:none;"/>
    <g id="Interaction-Tools1" serif:id="Interaction Tools">
        <g transform="matrix(1.24408,1.24408,-1.17851,1.17851,6.85068,-7.29146)">
            <path d="M7.842,6.588L7.842,9L5,6L7.842,3L7.842,5.412L11,5.412L11,6.588L7.842,6.588Z" style="fill:rgb(110,110,110);"/>
        </g>
        <path d="M9,5C9,2.791 7.209,1 5,1C2.792,1 1,2.792 1,5C1,7.209 2.791,9 5,9L5,8C3.343,8 2,6.657 2,5C2,3.344 3.344,2 5,2C6.657,2 8,3.343 8,5L9,5Z" style="fill:rgb(56,159,214);"/>
        <g transform="matrix(0.5,0,0,0.5,2.5,2.5)">
            <path d="M9,5C9,2.791 7.209,1 5,1C2.792,1 1,2.792 1,5C1,7.209 2.791,9 5,9L5,7C3.895,7 3,6.105 3,5C3,3.896 3.896,3 5,3C6.105,3 7,3.895 7,5L9,5Z" style="fill:rgb(56,159,214);"/>
        </g>
    </g>
</svg>
