<?xml version="1.0" encoding="UTF-8" standalone="no"?>
<!DOCTYPE svg PUBLIC "-//W3C//DTD SVG 1.1//EN" "http://www.w3.org/Graphics/SVG/1.1/DTD/svg11.dtd">
<svg width="100%" height="100%" viewBox="0 0 16 16" version="1.1" xmlns="http://www.w3.org/2000/svg" xmlns:xlink="http://www.w3.org/1999/xlink" xml:space="preserve" xmlns:serif="http://www.serif.com/" style="fill-rule:evenodd;clip-rule:evenodd;stroke-linejoin:round;stroke-miterlimit:2;">
    <g transform="matrix(1,0,0,1,-76,-95)">
        <g id="Line-Template-Centered-on-Grid" serif:id="Line Template Centered on Grid" transform="matrix(1,0,0,1,-14,95)">
            <rect x="90" y="0" width="16" height="16" style="fill:none;"/>
            <g transform="matrix(0.734303,0.734303,-1.11603,1.11603,207.825,-113.558)">
                <rect x="7.044" y="98.113" width="1.89" height="5.55" style="fill:rgb(110,110,110);"/>
            </g>
            <g transform="matrix(1,0,0,1,68.0083,-89.1491)">
                <path d="M28.966,98.162L22.992,98.162L22.992,104.136L28.966,104.136L28.966,98.162ZM26.966,100.162L26.966,102.136C26.966,102.136 24.992,102.136 24.992,102.136C24.992,102.136 24.992,100.162 24.992,100.162L26.966,100.162Z" style="fill:rgb(56,159,214);"/>
            </g>
        </g>
    </g>
</svg>
