<?xml version="1.0" encoding="UTF-8" standalone="no"?>
<!DOCTYPE svg PUBLIC "-//W3C//DTD SVG 1.1//EN" "http://www.w3.org/Graphics/SVG/1.1/DTD/svg11.dtd">
<svg width="100%" height="100%" viewBox="0 0 16 16" version="1.1" xmlns="http://www.w3.org/2000/svg" xmlns:xlink="http://www.w3.org/1999/xlink" xml:space="preserve" xmlns:serif="http://www.serif.com/" style="fill-rule:evenodd;clip-rule:evenodd;stroke-linejoin:round;stroke-miterlimit:2;">
    <g transform="matrix(1,0,0,1,0,-171)">
        <g id="Me" transform="matrix(1,0,0,1,-90,171)">
            <rect x="90" y="0" width="16" height="16" style="fill:none;"/>
            <g transform="matrix(1,0,0,1,90,-204.852)">
                <path d="M4.006,216.852C4.002,216.817 4,216.782 4,216.747C4,214.539 5.792,212.747 8,212.747C10.208,212.747 12,214.539 12,216.747C12,216.782 11.997,216.817 11.993,216.852L12,216.852L12,218.852L4,218.852L4,216.852L4.006,216.852ZM8,207.923C9.104,207.923 10,208.82 10,209.923C10,211.027 9.104,211.923 8,211.923C6.896,211.923 6,211.027 6,209.923C6,208.82 6.896,207.923 8,207.923Z" style="fill:rgb(110,110,110);"/>
            </g>
        </g>
    </g>
</svg>
