<?xml version="1.0" encoding="UTF-8" standalone="no"?>
<!DOCTYPE svg PUBLIC "-//W3C//DTD SVG 1.1//EN" "http://www.w3.org/Graphics/SVG/1.1/DTD/svg11.dtd">
<svg width="100%" height="100%" viewBox="0 0 16 16" version="1.1" xmlns="http://www.w3.org/2000/svg" xmlns:xlink="http://www.w3.org/1999/xlink" xml:space="preserve" xmlns:serif="http://www.serif.com/" style="fill-rule:evenodd;clip-rule:evenodd;stroke-linejoin:round;stroke-miterlimit:2;">
    <g transform="matrix(1,0,0,1,-19,-19)">
        <g id="Measure-Distance" serif:id="Measure Distance" transform="matrix(1,0,0,1,-17,19)">
            <rect x="36" y="0" width="16" height="16" style="fill:none;"/>
            <g transform="matrix(1.25,0,0,1.08333,-11.75,-0.166667)">
                <path d="M42.2,5.692L39,2L39,4.769L40.6,4.769L40.6,5.692L39,5.692L39,8.462L39.8,8.462L39.8,9.385L39,9.385L39,12.154L40.6,12.154L40.6,13.077L39,13.077L39,14L42.2,14L42.2,5.692Z" style="fill:rgb(110,110,110);"/>
            </g>
            <g transform="matrix(7.65404e-17,1.25,-1.08333,6.6335e-17,52.1667,-47.75)">
                <path d="M42.2,1.077L39,1.077L39,2.048L40.6,2L40.6,2.923L39,2.923L39,5.692L39.8,5.692L39.8,6.615L39,6.615L39,9.385L40.6,9.385L40.6,10.308L39,10.308L39,13.077L42.2,9.385L42.2,1.077Z" style="fill:rgb(110,110,110);"/>
            </g>
        </g>
    </g>
</svg>
