<?xml version="1.0" encoding="UTF-8" standalone="no"?>
<!DOCTYPE svg PUBLIC "-//W3C//DTD SVG 1.1//EN" "http://www.w3.org/Graphics/SVG/1.1/DTD/svg11.dtd">
<svg width="100%" height="100%" viewBox="0 0 17 16" version="1.1" xmlns="http://www.w3.org/2000/svg" xmlns:xlink="http://www.w3.org/1999/xlink" xml:space="preserve" xmlns:serif="http://www.serif.com/" style="fill-rule:evenodd;clip-rule:evenodd;stroke-linejoin:round;stroke-miterlimit:2;">
    <g transform="matrix(1,0,0,1,-19,-152)">
        <g id="Mute---OFF" serif:id="Mute - OFF" transform="matrix(1,0,0,1,-70.9031,152)">
            <rect x="90" y="0" width="16" height="16" style="fill:none;"/>
            <g transform="matrix(0.806702,0,0,0.847878,89.5464,-156.9)">
                <path d="M8,200.383L4.901,197.435L1.802,196.452L1.802,192.52L4.901,191.537L8,188.589L8,200.383ZM6.76,197.536L5.571,196.404L3.042,195.602C3.042,195.602 3.042,193.37 3.042,193.37C3.042,193.37 5.571,192.568 5.571,192.568L6.76,191.436L6.76,197.536Z" style="fill:rgb(110,110,110);"/>
            </g>
            <g transform="matrix(1.42857,0,0,1.42857,57.8571,-268.755)">
                <path d="M30.791,191.519L31.709,192.438L30.419,193.729L31.709,195.019L30.791,195.938L29.5,194.647L28.209,195.938L27.291,195.019L28.581,193.729L27.291,192.438L28.209,191.519L29.5,192.81L30.791,191.519Z" style="fill:rgb(219,88,96);"/>
            </g>
        </g>
    </g>
</svg>
