<?xml version="1.0" encoding="UTF-8" standalone="no"?>
<!DOCTYPE svg PUBLIC "-//W3C//DTD SVG 1.1//EN" "http://www.w3.org/Graphics/SVG/1.1/DTD/svg11.dtd">
<svg width="100%" height="100%" viewBox="0 0 16 16" version="1.1" xmlns="http://www.w3.org/2000/svg" xmlns:xlink="http://www.w3.org/1999/xlink" xml:space="preserve" xmlns:serif="http://www.serif.com/" style="fill-rule:evenodd;clip-rule:evenodd;stroke-linejoin:round;stroke-miterlimit:2;">
    <g transform="matrix(1,0,0,1,-38,-19)">
        <g id="Pathing-MBL---VBL--AI-" serif:id="Pathing MBL - VBL (AI)" transform="matrix(-1,0,0,1,108,19)">
            <rect x="54" y="0" width="16" height="16" style="fill:none;"/>
            <g transform="matrix(9.51291e-17,1.04913,-0.869509,2.3729e-17,85.1488,-37.211)">
                <rect x="43.094" y="26.623" width="1.906" height="6.9" style="fill:rgb(110,110,110);"/>
            </g>
            <g transform="matrix(1.87048e-16,1.83333,-1,1.12568e-17,71,-6.16667)">
                <path d="M6.636,7L6.636,9L5,6L6.636,3L6.636,5L11,5L11,7L6.636,7Z" style="fill:rgb(89,168,105);"/>
            </g>
            <g transform="matrix(1.48153e-16,1.04913,-0.721559,-4.6022e-17,85.189,-33.211)">
                <rect x="43.094" y="26.623" width="1.906" height="6.9" style="fill:rgb(89,168,105);"/>
            </g>
        </g>
    </g>
</svg>
