<?xml version="1.0" encoding="UTF-8" standalone="no"?>
<!DOCTYPE svg PUBLIC "-//W3C//DTD SVG 1.1//EN" "http://www.w3.org/Graphics/SVG/1.1/DTD/svg11.dtd">
<svg width="100%" height="100%" viewBox="0 0 16 16" version="1.1" xmlns="http://www.w3.org/2000/svg" xmlns:xlink="http://www.w3.org/1999/xlink" xml:space="preserve" xmlns:serif="http://www.serif.com/" style="fill-rule:evenodd;clip-rule:evenodd;stroke-linejoin:round;stroke-miterlimit:2;">
    <g transform="matrix(1,0,0,1,-95,-19)">
        <g id="Pathing-MBL---OFF" serif:id="Pathing MBL - OFF" transform="matrix(-1,0,0,1,183,19)">
            <rect x="72" y="0" width="16" height="16" style="fill:none;"/>
            <g transform="matrix(-1.49849,0,0,1.49849,202.374,-31.9594)">
                <path d="M81.649,27C82.087,26.01 82.975,25.332 84,25.332C85.025,25.332 85.913,26.01 86.351,27C85.913,27.99 85.025,28.668 84,28.668C82.975,28.668 82.087,27.99 81.649,27ZM84,25.993C84.556,25.993 85.007,26.444 85.007,27C85.007,27.556 84.556,28.007 84,28.007C83.444,28.007 82.993,27.556 82.993,27C82.993,26.444 83.444,25.993 84,25.993Z" style="fill:rgb(110,110,110);"/>
            </g>
            <g transform="matrix(-1,0,0,1,183,-19)">
                <path d="M103,29.773L103,33L101,33L101,24L99,24L102,21L105,24L103,24L103,25.227C102.147,25.757 101.449,26.549 101,27.5C101.449,28.451 102.147,29.243 103,29.773Z" style="fill:rgb(219,88,96);"/>
            </g>
        </g>
    </g>
</svg>
