<?xml version="1.0" encoding="UTF-8" standalone="no"?>
<!DOCTYPE svg PUBLIC "-//W3C//DTD SVG 1.1//EN" "http://www.w3.org/Graphics/SVG/1.1/DTD/svg11.dtd">
<svg width="100%" height="100%" viewBox="0 0 16 16" version="1.1" xmlns="http://www.w3.org/2000/svg" xmlns:xlink="http://www.w3.org/1999/xlink" xml:space="preserve" xmlns:serif="http://www.serif.com/" style="fill-rule:evenodd;clip-rule:evenodd;stroke-miterlimit:3;">
    <g transform="matrix(1,0,0,1,-19,-95)">
        <g id="Radius-Template-Centered-on-Grid" serif:id="Radius Template Centered on Grid" transform="matrix(1,0,0,1,-71,95)">
            <rect x="90" y="0" width="16" height="16" style="fill:none;"/>
            <clipPath id="_clip1">
                <rect x="90" y="0" width="16" height="16"/>
            </clipPath>
            <g clip-path="url(#_clip1)">
                <g transform="matrix(0.94768,0,0,0.94768,91.0982,-87.2362)">
                    <circle cx="7.283" cy="100.494" r="6.331" style="fill:none;stroke:rgb(110,110,110);stroke-width:2.11px;"/>
                </g>
                <g transform="matrix(1,0,0,1,72,-93.1143)">
                    <path d="M28.966,98.162L22.992,98.162L22.992,104.136L28.966,104.136L28.966,98.162ZM26.966,100.162L26.966,102.136C26.966,102.136 24.992,102.136 24.992,102.136C24.992,102.136 24.992,100.162 24.992,100.162L26.966,100.162Z" style="fill:rgb(56,159,214);"/>
                </g>
            </g>
        </g>
    </g>
</svg>
