<?xml version="1.0" encoding="UTF-8" standalone="no"?>
<!DOCTYPE svg PUBLIC "-//W3C//DTD SVG 1.1//EN" "http://www.w3.org/Graphics/SVG/1.1/DTD/svg11.dtd">
<svg width="100%" height="100%" viewBox="0 0 16 16" version="1.1" xmlns="http://www.w3.org/2000/svg" xmlns:xlink="http://www.w3.org/1999/xlink" xml:space="preserve" xmlns:serif="http://www.serif.com/" style="fill-rule:evenodd;clip-rule:evenodd;stroke-linejoin:round;stroke-miterlimit:2;">
    <g transform="matrix(1,0,0,1,-19,-114)">
        <g id="Vision-Blocking-Layer-Tools" serif:id="Vision Blocking Layer Tools" transform="matrix(1,0,0,1,-71,114)">
            <rect x="90" y="0" width="16" height="16" style="fill:none;"/>
            <g transform="matrix(1.42873,0,0,1.65609,86.5701,-253.634)">
                <path d="M3.101,157.983C4.012,156.203 5.865,154.983 8,154.983C10.135,154.983 11.988,156.203 12.899,157.983C11.988,159.763 10.135,160.983 8,160.983C5.865,160.983 4.012,159.763 3.101,157.983ZM4.137,157.983C4.94,156.679 6.36,155.788 8,155.788C9.64,155.788 11.06,156.679 11.863,157.983C11.06,159.287 9.64,160.178 8,160.178C6.36,160.178 4.94,159.287 4.137,157.983L4.137,157.983Z" style="fill:rgb(110,110,110);"/>
            </g>
            <g transform="matrix(1.5,0,0,1.5,86,-227.474)">
                <circle cx="8" cy="156.983" r="2" style="fill:rgb(110,110,110);"/>
                <path d="M8,154.983C9.104,154.983 10,155.879 10,156.983C10,158.087 9.104,158.983 8,158.983C6.896,158.983 6,158.087 6,156.983C6,155.879 6.896,154.983 8,154.983ZM8,155.872C8.613,155.872 9.111,156.37 9.111,156.983C9.111,157.596 8.613,158.094 8,158.094C7.387,158.094 6.889,157.596 6.889,156.983C6.889,156.37 7.387,155.872 8,155.872Z" style="fill:rgb(56,159,214);"/>
            </g>
            <g transform="matrix(1,0,0,1,90,-152)">
                <circle cx="7" cy="159" r="1" style="fill:white;"/>
            </g>
        </g>
    </g>
</svg>
