<?xml version="1.0" encoding="UTF-8" standalone="no"?>
<!DOCTYPE svg PUBLIC "-//W3C//DTD SVG 1.1//EN" "http://www.w3.org/Graphics/SVG/1.1/DTD/svg11.dtd">
<svg width="100%" height="100%" viewBox="0 0 16 16" version="1.1" xmlns="http://www.w3.org/2000/svg" xmlns:xlink="http://www.w3.org/1999/xlink" xml:space="preserve" xmlns:serif="http://www.serif.com/" style="fill-rule:evenodd;clip-rule:evenodd;stroke-miterlimit:5;">
    <g transform="matrix(1,0,0,1,-19,-19)">
        <g id="Categorised" transform="matrix(1,0,0,1,-196.667,19)">
            <rect x="215.667" y="0" width="16" height="16" style="fill:none;"/>
            <clipPath id="_clip1">
                <rect x="215.667" y="0" width="16" height="16"/>
            </clipPath>
            <g clip-path="url(#_clip1)">
                <g transform="matrix(0.5,0,0,0.666667,224.167,1)">
                    <rect x="3" y="3" width="10" height="3" style="fill:rgb(110,110,110);"/>
                </g>
                <g transform="matrix(-1.14286,1.3996e-16,-1.22465e-16,-1,359.524,15)">
                    <path d="M121.5,8L125,12L118,12L121.5,8Z" style="fill:rgb(110,110,110);"/>
                </g>
                <g transform="matrix(0.7,0,0,0.666667,221.567,6)">
                    <rect x="3" y="3" width="10" height="3" style="fill:rgb(110,110,110);"/>
                </g>
                <g transform="matrix(0.7,0,0,0.666667,221.567,11)">
                    <rect x="3" y="3" width="10" height="3" style="fill:rgb(110,110,110);"/>
                </g>
                <g transform="matrix(1.25,0,0,0.75,192.667,-10.75)">
                    <path d="M22,25L22,27L24,27" style="fill:none;stroke:rgb(110,110,110);stroke-width:0.97px;"/>
                </g>
                <g transform="matrix(1.25,0,0,2.75,192.667,-59.75)">
                    <path d="M22,25L22,27L24,27" style="fill:none;stroke:rgb(110,110,110);stroke-width:0.47px;"/>
                </g>
            </g>
        </g>
    </g>
</svg>
