<?xml version="1.0" encoding="UTF-8" standalone="no"?>
<!DOCTYPE svg PUBLIC "-//W3C//DTD SVG 1.1//EN" "http://www.w3.org/Graphics/SVG/1.1/DTD/svg11.dtd">
<svg width="100%" height="100%" viewBox="0 0 16 16" version="1.1" xmlns="http://www.w3.org/2000/svg" xmlns:xlink="http://www.w3.org/1999/xlink" xml:space="preserve" xmlns:serif="http://www.serif.com/" style="fill-rule:evenodd;clip-rule:evenodd;stroke-linejoin:round;stroke-miterlimit:2;">
    <g transform="matrix(1,0,0,1,-95,-19)">
        <g id="Collapse" transform="matrix(1,0,0,1,-448.667,19)">
            <rect x="543.667" y="0" width="16" height="16" style="fill:none;"/>
            <g transform="matrix(0.8,0,0,0.666667,548.267,1)">
                <rect x="3" y="3" width="10" height="3" style="fill:rgb(110,110,110);"/>
            </g>
            <g transform="matrix(1.02372e-15,0.857143,-0.75,8.95755e-16,555.667,-100.143)">
                <path d="M121.5,8L125,12L118,12L121.5,8Z" style="fill:rgb(56,159,214);"/>
            </g>
            <g transform="matrix(1.02372e-15,0.857143,-0.75,8.95755e-16,555.667,-92.1429)">
                <path d="M121.5,8L125,12L118,12L121.5,8Z" style="fill:rgb(56,159,214);"/>
            </g>
            <g transform="matrix(0.8,0,0,0.666667,548.267,9)">
                <rect x="3" y="3" width="10" height="3" style="fill:rgb(110,110,110);"/>
            </g>
        </g>
    </g>
</svg>
