<?xml version="1.0" encoding="UTF-8" standalone="no"?>
<!DOCTYPE svg PUBLIC "-//W3C//DTD SVG 1.1//EN" "http://www.w3.org/Graphics/SVG/1.1/DTD/svg11.dtd">
<svg width="100%" height="100%" viewBox="0 0 16 16" version="1.1" xmlns="http://www.w3.org/2000/svg" xmlns:xlink="http://www.w3.org/1999/xlink" xml:space="preserve" xmlns:serif="http://www.serif.com/" style="fill-rule:evenodd;clip-rule:evenodd;stroke-miterlimit:3;">
    <rect id="Scroll-Lock" serif:id="Scroll Lock" x="0" y="0" width="16" height="16" style="fill:none;"/>
    <clipPath id="_clip1">
        <rect id="Scroll-Lock1" serif:id="Scroll Lock" x="0" y="0" width="16" height="16"/>
    </clipPath>
    <g clip-path="url(#_clip1)">
        <g transform="matrix(1,0,0,1.16667,-1.22125e-15,-0.166667)">
            <rect x="3" y="7" width="10" height="6" style="fill:rgb(110,110,110);"/>
        </g>
        <g transform="matrix(0.75,0,0,1,2,1)">
            <path d="M12,3.5C12,2.672 11.104,2 10,2L6,2C4.896,2 4,2.672 4,3.5L4,9.5C4,10.328 4.896,11 6,11L10,11C11.104,11 12,10.328 12,9.5L12,3.5Z" style="fill:none;stroke:rgb(110,110,110);stroke-width:2.26px;"/>
        </g>
    </g>
</svg>
