<?xml version="1.0" encoding="UTF-8" standalone="no"?>
<!DOCTYPE svg PUBLIC "-//W3C//DTD SVG 1.1//EN" "http://www.w3.org/Graphics/SVG/1.1/DTD/svg11.dtd">
<svg width="100%" height="100%" viewBox="0 0 16 16" version="1.1" xmlns="http://www.w3.org/2000/svg" xmlns:xlink="http://www.w3.org/1999/xlink" xml:space="preserve" xmlns:serif="http://www.serif.com/" style="fill-rule:evenodd;clip-rule:evenodd;stroke-miterlimit:3;">
    <g transform="matrix(1,0,0,1,-57,0)">
        <g id="Select-All-Tokens" serif:id="Select All Tokens" transform="matrix(1,0,0,1,-82.6667,0)">
            <rect x="139.667" y="0" width="16" height="16" style="fill:none;"/>
            <clipPath id="_clip1">
                <rect x="139.667" y="0" width="16" height="16"/>
            </clipPath>
            <g clip-path="url(#_clip1)">
                <g transform="matrix(1,0,0,1,63.6667,0)">
                    <path d="M83.418,14.976C79.827,14.68 77,11.668 77,8C77,4.137 80.137,1 84,1C87.444,1 90.311,3.493 90.892,6.771L90.5,6.379L86.993,9.886C86.456,8.773 85.317,8.004 84,8.004C82.21,8.004 80.748,9.424 80.682,11.198L80.161,11.719L83.418,14.976ZM84,4C84.916,4 85.66,4.744 85.66,5.66C85.66,6.577 84.916,7.321 84,7.321C83.084,7.321 82.34,6.577 82.34,5.66C82.34,4.744 83.084,4 84,4Z" style="fill:rgb(110,110,110);"/>
                </g>
                <g transform="matrix(1,0,0,1,66.6667,2.00921)">
                    <path d="M80,9L83.006,12.006L88.021,6.991" style="fill:none;stroke:rgb(89,168,105);stroke-width:2px;"/>
                </g>
            </g>
        </g>
    </g>
</svg>
