<?xml version="1.0" encoding="UTF-8" standalone="no"?>
<!DOCTYPE svg PUBLIC "-//W3C//DTD SVG 1.1//EN" "http://www.w3.org/Graphics/SVG/1.1/DTD/svg11.dtd">
<svg width="100%" height="100%" viewBox="0 0 16 16" version="1.1" xmlns="http://www.w3.org/2000/svg" xmlns:xlink="http://www.w3.org/1999/xlink" xml:space="preserve" xmlns:serif="http://www.serif.com/" style="fill-rule:evenodd;clip-rule:evenodd;stroke-linejoin:round;stroke-miterlimit:2;">
    <g transform="matrix(1,0,0,1,-57,-19)">
        <g id="Show---Hide-Description-Area" serif:id="Show / Hide Description Area" transform="matrix(1,0,0,1,-322.667,19)">
            <rect x="379.667" y="0" width="16" height="16" style="fill:none;"/>
            <g transform="matrix(1,0,0,1.125,322.667,-24.125)">
                <path d="M71,25L59,25L59,33L71,33L71,25ZM70,25.889L70,32.111C70,32.111 60,32.111 60,32.111C60,32.111 60,25.889 60,25.889L70,25.889Z" style="fill:rgb(110,110,110);"/>
            </g>
            <g transform="matrix(0.8,0,0,0.666667,381.267,4)">
                <rect x="3" y="3" width="10" height="3" style="fill:rgb(110,110,110);"/>
            </g>
            <g transform="matrix(0.8,0,0,0.333333,381.267,8)">
                <rect x="3" y="3" width="10" height="3" style="fill:rgb(110,110,110);"/>
            </g>
        </g>
    </g>
</svg>
