<?xml version="1.0" encoding="UTF-8" standalone="no"?>
<!DOCTYPE svg PUBLIC "-//W3C//DTD SVG 1.1//EN" "http://www.w3.org/Graphics/SVG/1.1/DTD/svg11.dtd">
<svg width="100%" height="100%" viewBox="0 0 16 16" version="1.1" xmlns="http://www.w3.org/2000/svg" xmlns:xlink="http://www.w3.org/1999/xlink" xml:space="preserve" xmlns:serif="http://www.serif.com/" style="fill-rule:evenodd;clip-rule:evenodd;stroke-linejoin:round;stroke-miterlimit:2;">
    <g transform="matrix(1,0,0,1,-19,0)">
        <g id="Show-Typing-notification" serif:id="Show Typing notification" transform="matrix(1,0,0,1,-63.6667,0)">
            <rect x="82.667" y="0" width="16" height="16" style="fill:none;"/>
            <g transform="matrix(1.33333,0,0,1.33333,54.6667,-2.33333)">
                <circle cx="27" cy="7" r="3" style="fill:rgb(110,110,110);"/>
            </g>
            <g transform="matrix(1,0,0,0.8,63.6667,1.4)">
                <rect x="23" y="7" width="8" height="5" style="fill:rgb(110,110,110);"/>
            </g>
            <g transform="matrix(1,0,0,1,63.6667,-1)">
                <rect x="22" y="10" width="10" height="2" style="fill:rgb(110,110,110);"/>
            </g>
            <g transform="matrix(1,0,0,1,63.6667,-1)">
                <path d="M29,13.013C28.993,14.111 28.1,15 27,15C25.896,15 25,14.104 25,13L29,13L29,13.013Z" style="fill:rgb(110,110,110);"/>
            </g>
            <g transform="matrix(1.25,0,0,1.25,56.9167,-0.5)">
                <circle cx="27" cy="3" r="1" style="fill:rgb(110,110,110);"/>
            </g>
        </g>
    </g>
</svg>
