<?xml version="1.0" encoding="UTF-8" standalone="no"?>
<!DOCTYPE svg PUBLIC "-//W3C//DTD SVG 1.1//EN" "http://www.w3.org/Graphics/SVG/1.1/DTD/svg11.dtd">
<svg width="100%" height="100%" viewBox="0 0 16 16" version="1.1" xmlns="http://www.w3.org/2000/svg" xmlns:xlink="http://www.w3.org/1999/xlink" xml:space="preserve" xmlns:serif="http://www.serif.com/" style="fill-rule:evenodd;clip-rule:evenodd;stroke-linejoin:round;stroke-miterlimit:2;">
    <g transform="matrix(1,0,0,1,-19,-19)">
        <g id="hero_lab_folder" transform="matrix(1,0,0,1,-63.6667,19)">
            <rect x="82.667" y="0" width="16" height="16" style="fill:none;"/>
            <g transform="matrix(1,0,0,1,44.6667,0)">
                <path d="M40,3L40,13L52,13L52,5L46,5L44.5,3L40,3Z" style="fill:rgb(110,110,110);"/>
            </g>
            <g transform="matrix(0.637923,0,0,0.637923,73.5097,3.70366)">
                <path d="M27.901,6.843C27.901,6.843 29.499,9.054 29.848,9.752C30.197,10.45 31.194,11.907 30.812,12.5C30.429,13.093 29.415,13 29.415,13L24.38,13C24.38,13 23.798,12.954 23.432,12.5C23.067,12.046 23.349,11.048 24.18,9.669C25.011,8.289 25.925,7 25.925,7L25.925,4.301L25.224,3.6L28.5,3.6L27.901,4.199L27.901,6.843ZM25.327,9.87L28.463,9.87C29.234,10.393 29.258,10.915 28.463,11.438L25.327,11.438C24.498,10.915 24.498,10.393 25.327,9.87Z" style="fill:rgb(235,235,235);"/>
            </g>
        </g>
    </g>
</svg>
