<?xml version="1.0" encoding="UTF-8" standalone="no"?>
<!DOCTYPE svg PUBLIC "-//W3C//DTD SVG 1.1//EN" "http://www.w3.org/Graphics/SVG/1.1/DTD/svg11.dtd">
<svg width="100%" height="100%" viewBox="0 0 16 16" version="1.1" xmlns="http://www.w3.org/2000/svg" xmlns:xlink="http://www.w3.org/1999/xlink" xml:space="preserve" xmlns:serif="http://www.serif.com/" style="fill-rule:evenodd;clip-rule:evenodd;stroke-linejoin:round;stroke-miterlimit:2;">
    <g transform="matrix(1,0,0,1,-19,0)">
        <g id="hero-lab-icon" transform="matrix(1,0,0,1,-63.6667,0)">
            <rect x="82.667" y="0" width="16" height="16" style="fill:none;"/>
            <g transform="matrix(1.14431,0,0,1.14431,59.8103,0.117903)">
                <path d="M27.901,6.843C27.901,6.843 29.499,9.054 29.848,9.752C30.197,10.45 31.194,11.907 30.812,12.5C30.429,13.093 29.415,13 29.415,13L24.38,13C24.38,13 23.798,12.954 23.432,12.5C23.067,12.046 23.349,11.048 24.18,9.669C25.011,8.289 25.925,7 25.925,7L25.925,4.301L25.224,3.6L28.5,3.6L27.901,4.199L27.901,6.843ZM27.276,9.564L29.091,9.564C29.091,9.564 30.676,11.529 30.128,12.296C29.866,12.663 29.237,12.609 29.237,12.609L24.358,12.609C24.358,12.609 23.973,12.635 23.733,12.362C23.201,11.758 24.757,9.564 24.757,9.564L26.729,9.564C26.726,9.548 26.724,9.531 26.724,9.514C26.724,9.361 26.849,9.236 27.002,9.236C27.156,9.236 27.28,9.361 27.28,9.514C27.28,9.531 27.279,9.548 27.276,9.564ZM26.724,7.876C26.863,7.876 26.976,7.988 26.976,8.127C26.976,8.266 26.863,8.378 26.724,8.378C26.586,8.378 26.473,8.266 26.473,8.127C26.473,7.988 26.586,7.876 26.724,7.876ZM27.122,7.068C27.255,7.068 27.362,7.176 27.362,7.308C27.362,7.44 27.255,7.548 27.122,7.548C26.99,7.548 26.882,7.44 26.882,7.308C26.882,7.176 26.99,7.068 27.122,7.068ZM26.968,5.776C27.139,5.776 27.278,5.915 27.278,6.086C27.278,6.257 27.139,6.396 26.968,6.396C26.797,6.396 26.658,6.257 26.658,6.086C26.658,5.915 26.797,5.776 26.968,5.776ZM26.882,5.078C26.993,5.078 27.083,5.168 27.083,5.279C27.083,5.39 26.993,5.48 26.882,5.48C26.771,5.48 26.681,5.39 26.681,5.279C26.681,5.168 26.771,5.078 26.882,5.078ZM27.315,4.286C27.458,4.286 27.575,4.403 27.575,4.546C27.575,4.69 27.458,4.806 27.315,4.806C27.171,4.806 27.054,4.69 27.054,4.546C27.054,4.403 27.171,4.286 27.315,4.286ZM26.603,3.942C26.695,3.942 26.769,4.017 26.769,4.108C26.769,4.2 26.695,4.275 26.603,4.275C26.511,4.275 26.437,4.2 26.437,4.108C26.437,4.017 26.511,3.942 26.603,3.942Z" style="fill:rgb(110,110,110);"/>
            </g>
            <g transform="matrix(1.14431,0,0,1.14431,59.8103,0.117903)">
                <circle cx="26.437" cy="10.567" r="0.221" style="fill:rgb(110,110,110);"/>
            </g>
            <g transform="matrix(1.14431,0,0,1.14431,59.8103,0.117903)">
                <circle cx="27.315" cy="10.663" r="0.126" style="fill:rgb(110,110,110);"/>
            </g>
            <g transform="matrix(1.14431,0,0,1.14431,59.8103,0.117903)">
                <circle cx="27.601" cy="11.18" r="0.269" style="fill:rgb(110,110,110);"/>
            </g>
            <g transform="matrix(1.14431,0,0,1.14431,59.8103,0.117903)">
                <circle cx="26.176" cy="11.933" r="0.362" style="fill:rgb(110,110,110);"/>
            </g>
            <g transform="matrix(1.14431,0,0,1.14431,59.8103,0.117903)">
                <circle cx="27.242" cy="3.206" r="0.24" style="fill:rgb(110,110,110);"/>
            </g>
            <g transform="matrix(1.14431,0,0,1.14431,59.8103,0.117903)">
                <circle cx="26.526" cy="2.649" r="0.476" style="fill:rgb(110,110,110);"/>
            </g>
            <g transform="matrix(1.14431,0,0,1.14431,59.8103,0.117903)">
                <circle cx="25.872" cy="1.513" r="0.274" style="fill:rgb(110,110,110);"/>
            </g>
            <g transform="matrix(1.14431,0,0,1.14431,59.8103,0.117903)">
                <circle cx="26.23" cy="0.978" r="0.207" style="fill:rgb(110,110,110);"/>
            </g>
        </g>
    </g>
</svg>
