<?xml version="1.0" encoding="UTF-8" standalone="no"?>
<!DOCTYPE svg PUBLIC "-//W3C//DTD SVG 1.1//EN" "http://www.w3.org/Graphics/SVG/1.1/DTD/svg11.dtd">
<svg width="100%" height="100%" viewBox="0 0 16 16" version="1.1" xmlns="http://www.w3.org/2000/svg" xmlns:xlink="http://www.w3.org/1999/xlink" xml:space="preserve" xmlns:serif="http://www.serif.com/" style="fill-rule:evenodd;clip-rule:evenodd;stroke-linejoin:round;stroke-miterlimit:2;">
    <rect id="maptool_icon" x="0" y="0" width="16" height="16" style="fill:none;"/>
    <g id="maptool_icon1" serif:id="maptool_icon">
        <g transform="matrix(0.654176,-0.462422,0.808029,1.1431,-2.06586,3.18941)">
            <rect x="8.246" y="5.564" width="0.754" height="3.343" style="fill:rgb(110,110,110);"/>
        </g>
        <g transform="matrix(1,0,0,1,-0.0783369,0.29616)">
            <path d="M5.597,7.635L6.8,5.933C6.74,5.932 6.677,5.93 6.612,5.926C6.242,5.9 5.946,5.818 5.952,5.741C5.957,5.664 6.261,5.622 6.631,5.647C6.756,5.655 6.873,5.67 6.972,5.69L6.8,5.933C7.08,5.935 7.287,5.895 7.291,5.832C7.295,5.781 7.166,5.727 6.972,5.69L7.41,5.07L7.903,5.419L4.962,9.579L4.469,9.231L5.434,7.866C5.392,7.818 5.348,7.766 5.305,7.711C5.076,7.42 4.94,7.144 5,7.097C5.061,7.049 5.296,7.247 5.525,7.539C5.55,7.571 5.574,7.603 5.597,7.635L5.434,7.866C5.616,8.069 5.78,8.192 5.829,8.153C5.883,8.111 5.781,7.888 5.597,7.635Z" style="fill:rgb(110,110,110);"/>
        </g>
        <g transform="matrix(1.5455,-1.09248,0.146514,0.207269,-3.41644,17.5635)">
            <rect x="8.246" y="5.564" width="0.754" height="3.343" style="fill:rgb(110,110,110);"/>
        </g>
        <g transform="matrix(0.590611,0,-2.12203e-16,0.709671,2.66683,4.39212)">
            <rect x="8.246" y="5.564" width="0.754" height="3.343" style="fill:rgb(110,110,110);"/>
        </g>
        <g transform="matrix(2.27207,0,0,2.27207,-4.47851,-9.05846)">
            <path d="M4.572,7.512C4.811,7.667 5.09,7.75 5.374,7.75C5.706,7.75 6.028,7.638 6.288,7.431L6.181,7.297C5.952,7.48 5.667,7.579 5.374,7.579C5.123,7.579 4.877,7.506 4.666,7.368L4.572,7.512Z" style="fill:rgb(110,110,110);"/>
        </g>
        <g transform="matrix(3.90488,0,0,3.90488,-13.2539,-19.3159)">
            <path d="M4.356,7.34C4.63,7.603 4.995,7.75 5.374,7.75C5.706,7.75 6.028,7.638 6.288,7.431L6.223,7.349C5.981,7.541 5.682,7.645 5.374,7.645C5.022,7.645 4.683,7.508 4.429,7.264L4.356,7.34Z" style="fill:rgb(110,110,110);"/>
        </g>
        <g transform="matrix(1.03704,0,0,1,-0.037037,-4.28507e-12)">
            <path d="M8.403,1.033C7.969,0.989 7.531,0.989 7.097,1.033L6.892,2.188C6.481,2.253 6.078,2.365 5.69,2.522L4.956,1.628C4.559,1.815 4.18,2.042 3.825,2.305L4.205,3.411C3.88,3.681 3.585,3.987 3.325,4.324L2.258,3.93C2.005,4.298 1.786,4.691 1.605,5.103L2.467,5.864C2.316,6.266 2.208,6.684 2.145,7.111L1.032,7.323C0.989,7.773 0.989,8.227 1.032,8.677L2.145,8.889C2.208,9.316 2.316,9.734 2.467,10.136L1.605,10.897C1.786,11.309 2.005,11.702 2.258,12.07L3.325,11.676C3.585,12.013 3.88,12.319 4.205,12.589L3.825,13.695C4.18,13.958 4.559,14.185 4.956,14.372L5.69,13.478C6.078,13.635 6.481,13.747 6.892,13.812L7.097,14.967C7.531,15.011 7.969,15.011 8.403,14.967L8.608,13.812C9.019,13.747 9.422,13.635 9.81,13.478L10.544,14.372C10.941,14.185 11.32,13.958 11.675,13.695L11.295,12.589C11.62,12.319 11.915,12.013 12.175,11.676L13.242,12.07C13.495,11.702 13.714,11.309 13.895,10.897L13.033,10.136C13.184,9.734 13.292,9.316 13.355,8.889L14.468,8.677C14.511,8.227 14.511,7.773 14.468,7.323L13.355,7.111C13.292,6.684 13.184,6.266 13.033,5.864L13.895,5.103C13.714,4.691 13.495,4.298 13.242,3.93L12.175,4.324C11.915,3.987 11.62,3.681 11.295,3.411L11.675,2.305C11.32,2.042 10.941,1.815 10.544,1.628L9.81,2.522C9.422,2.365 9.019,2.253 8.608,2.188L8.403,1.033ZM7.75,3.38C10.209,3.38 12.205,5.45 12.205,8C12.205,10.55 10.209,12.62 7.75,12.62C5.291,12.62 3.295,10.55 3.295,8C3.295,5.45 5.291,3.38 7.75,3.38Z" style="fill:rgb(110,110,110);"/>
        </g>
        <g transform="matrix(0.0799447,0.513825,-4.20067,0.653571,35.9224,-2.48198)">
            <path d="M10.872,7.062L9.666,7.062L9.967,6.047L10.57,6.047L10.872,7.062Z" style="fill:rgb(110,110,110);"/>
        </g>
        <g transform="matrix(0.0927516,0.596138,-0.286653,0.0445996,9.49348,0.764292)">
            <path d="M10.872,7.062L9.666,7.062L9.967,6.047L10.57,6.047L10.872,7.062Z" style="fill:rgb(110,110,110);"/>
        </g>
        <g transform="matrix(0.0704172,0.45259,-0.286653,0.0445996,11.1073,2.03187)">
            <path d="M10.872,7.062L9.666,7.062L9.967,6.047L10.57,6.047L10.872,7.062Z" style="fill:rgb(110,110,110);"/>
        </g>
        <g transform="matrix(-0.0550597,-0.353883,0.235424,-0.036629,10.2914,10.6311)">
            <path d="M10.872,7.062L9.666,7.062L9.967,6.047L10.57,6.047L10.872,7.062Z" style="fill:rgb(110,110,110);"/>
        </g>
        <g transform="matrix(1,0,0,1,-0.0783369,0.29616)">
            <path d="M7.85,4.204C8.209,4.204 8.5,4.495 8.5,4.854C8.5,5.213 8.209,5.504 7.85,5.504C7.491,5.504 7.199,5.213 7.199,4.854C7.199,4.495 7.491,4.204 7.85,4.204ZM7.85,4.529C8.029,4.529 8.175,4.675 8.175,4.854C8.175,5.034 8.029,5.179 7.85,5.179C7.67,5.179 7.525,5.034 7.525,4.854C7.525,4.675 7.67,4.529 7.85,4.529Z" style="fill:rgb(110,110,110);"/>
        </g>
    </g>
</svg>
