<?xml version="1.0" encoding="UTF-8" standalone="no"?>
<!DOCTYPE svg PUBLIC "-//W3C//DTD SVG 1.1//EN" "http://www.w3.org/Graphics/SVG/1.1/DTD/svg11.dtd">
<svg width="100%" height="100%" viewBox="0 0 16 16" version="1.1" xmlns="http://www.w3.org/2000/svg" xmlns:xlink="http://www.w3.org/1999/xlink" xml:space="preserve" xmlns:serif="http://www.serif.com/" style="fill-rule:evenodd;clip-rule:evenodd;stroke-linejoin:round;stroke-miterlimit:2;">
    <g transform="matrix(1,0,0,1,-209,0)">
        <g id="notvisible" transform="matrix(1,0,0,1,-693.667,0)">
            <rect x="902.667" y="0" width="16" height="16" style="fill:none;"/>
            <g transform="matrix(1,0,0,1,693.667,0)">
                <path d="M222.076,5.189C222.867,5.966 223.523,6.921 224,8C222.698,10.948 220.051,12.968 217,12.968C216.198,12.968 215.424,12.829 214.695,12.569L216.338,10.927C216.551,10.975 216.773,11 217,11C218.656,11 220,9.656 220,8C220,7.773 219.975,7.551 219.927,7.338L222.076,5.189ZM211.824,10.711C211.078,9.953 210.456,9.033 210,8C211.302,5.052 213.949,3.032 217,3.032C217.747,3.032 218.47,3.153 219.155,3.379L217.494,5.041C217.333,5.014 217.168,5 217,5C215.344,5 214,6.344 214,8C214,8.168 214.014,8.333 214.041,8.494L211.824,10.711Z" style="fill:rgb(110,110,110);"/>
                <path d="M222.076,5.189C222.867,5.966 223.523,6.921 224,8C222.698,10.948 220.051,12.968 217,12.968C216.198,12.968 215.424,12.829 214.695,12.569L216.338,10.927C216.551,10.975 216.773,11 217,11C218.656,11 220,9.656 220,8C220,7.773 219.975,7.551 219.927,7.338L222.076,5.189ZM211.824,10.711C211.078,9.953 210.456,9.033 210,8C211.302,5.052 213.949,3.032 217,3.032C217.747,3.032 218.47,3.153 219.155,3.379L217.494,5.041C217.333,5.014 217.168,5 217,5C215.344,5 214,6.344 214,8C214,8.168 214.014,8.333 214.041,8.494L211.824,10.711ZM220.696,10.261C221.427,9.66 222.047,8.888 222.519,8C222.361,7.703 222.187,7.42 221.998,7.152L221.33,7.82C221.332,7.88 221.333,7.94 221.333,8C221.333,8.828 221.1,9.603 220.696,10.261ZM213.304,5.739C212.573,6.34 211.953,7.112 211.481,8C211.616,8.253 211.762,8.497 211.92,8.729L212.667,7.982C212.67,7.16 212.903,6.392 213.304,5.739Z" style="fill:rgb(110,110,110);"/>
            </g>
            <g transform="matrix(0.923415,-0.923415,1.60131,1.60131,741.607,168.767)">
                <rect x="172.914" y="2.116" width="11.355" height="0.883" style="fill:rgb(110,110,110);"/>
                <rect x="172.914" y="2.116" width="11.355" height="0.883" style="fill:rgb(110,110,110);"/>
            </g>
        </g>
    </g>
</svg>
