<?xml version="1.0" encoding="UTF-8" standalone="no"?>
<!DOCTYPE svg PUBLIC "-//W3C//DTD SVG 1.1//EN" "http://www.w3.org/Graphics/SVG/1.1/DTD/svg11.dtd">
<svg width="100%" height="100%" viewBox="0 0 16 16" version="1.1" xmlns="http://www.w3.org/2000/svg" xmlns:xlink="http://www.w3.org/1999/xlink" xml:space="preserve" xmlns:serif="http://www.serif.com/" style="fill-rule:evenodd;clip-rule:evenodd;stroke-linejoin:round;stroke-miterlimit:2;">
    <g transform="matrix(1,0,0,1,-171,0)">
        <g id="paintbrush" transform="matrix(1,0,0,1,-567.667,0)">
            <rect x="738.667" y="0" width="16" height="16" style="fill:none;"/>
            <g transform="matrix(-1.05681,-1.29422e-16,1.38667e-16,-1.1323,935.404,15.3962)">
                <rect x="172.914" y="2.116" width="11.355" height="0.883" style="fill:rgb(110,110,110);"/>
                <rect x="172.914" y="2.116" width="11.355" height="0.883" style="fill:rgb(110,110,110);"/>
            </g>
            <g transform="matrix(-1.05681,-1.29422e-16,2.77333e-16,-2.2646,935.404,14.7924)">
                <rect x="172.914" y="2.116" width="11.355" height="0.883" style="fill:rgb(110,110,110);"/>
                <rect x="172.914" y="2.116" width="11.355" height="0.883" style="fill:rgb(110,110,110);"/>
            </g>
            <g transform="matrix(-1.05681,-1.29422e-16,4.16e-16,-3.3969,935.404,13.1887)">
                <rect x="172.914" y="2.116" width="11.355" height="0.883" style="fill:rgb(110,110,110);"/>
                <rect x="172.914" y="2.116" width="11.355" height="0.883" style="fill:rgb(110,110,110);"/>
            </g>
        </g>
    </g>
</svg>
