<?xml version="1.0" encoding="UTF-8" standalone="no"?>
<!DOCTYPE svg PUBLIC "-//W3C//DTD SVG 1.1//EN" "http://www.w3.org/Graphics/SVG/1.1/DTD/svg11.dtd">
<svg width="100%" height="100%" viewBox="0 0 16 16" version="1.1" xmlns="http://www.w3.org/2000/svg" xmlns:xlink="http://www.w3.org/1999/xlink" xml:space="preserve" xmlns:serif="http://www.serif.com/" style="fill-rule:evenodd;clip-rule:evenodd;stroke-linejoin:round;stroke-miterlimit:2;">
    <g transform="matrix(1,0,0,1,-95,0)">
        <g id="shape_handles" transform="matrix(1,0,0,1,-315.667,0)">
            <rect x="410.667" y="0" width="16" height="16" style="fill:none;"/>
            <g transform="matrix(0.873942,0,0,0.862518,327.789,0.294012)">
                <path d="M100.553,1.978L97.121,1.978L97.121,5.456L100.553,5.456L100.553,1.978ZM99.409,3.137L99.409,4.297C99.409,4.297 98.265,4.297 98.265,4.297C98.265,4.297 98.265,3.137 98.265,3.137L99.409,3.137Z" style="fill:rgb(110,110,110);"/>
            </g>
            <g transform="matrix(0.873942,0,0,0.862518,336.789,0.294012)">
                <path d="M100.553,1.978L97.121,1.978L97.121,5.456L100.553,5.456L100.553,1.978ZM99.409,3.137L99.409,4.297C99.409,4.297 98.265,4.297 98.265,4.297C98.265,4.297 98.265,3.137 98.265,3.137L99.409,3.137Z" style="fill:rgb(110,110,110);"/>
            </g>
            <g transform="matrix(0.873942,0,0,0.862518,327.789,9.29401)">
                <path d="M100.553,1.978L97.121,1.978L97.121,5.456L100.553,5.456L100.553,1.978ZM99.409,3.137L99.409,4.297C99.409,4.297 98.265,4.297 98.265,4.297C98.265,4.297 98.265,3.137 98.265,3.137L99.409,3.137Z" style="fill:rgb(110,110,110);"/>
            </g>
            <g transform="matrix(0.873942,0,0,0.862518,336.789,9.29401)">
                <path d="M100.553,1.978L97.121,1.978L97.121,5.456L100.553,5.456L100.553,1.978ZM99.409,3.137L99.409,4.297C99.409,4.297 98.265,4.297 98.265,4.297C98.265,4.297 98.265,3.137 98.265,3.137L99.409,3.137Z" style="fill:rgb(110,110,110);"/>
            </g>
            <g transform="matrix(1.5,0,0,1,264.167,0)">
                <rect x="101" y="3" width="4" height="1" style="fill:rgb(110,110,110);"/>
            </g>
            <g transform="matrix(1.5,0,0,1,264.167,9)">
                <rect x="101" y="3" width="4" height="1" style="fill:rgb(110,110,110);"/>
            </g>
            <g transform="matrix(1.82322,-1.82322,0.707107,0.707107,228.4,193.317)">
                <rect x="101" y="3" width="4" height="1" style="fill:rgb(110,110,110);"/>
            </g>
        </g>
    </g>
</svg>
