<?xml version="1.0" encoding="UTF-8" standalone="no"?>
<!DOCTYPE svg PUBLIC "-//W3C//DTD SVG 1.1//EN" "http://www.w3.org/Graphics/SVG/1.1/DTD/svg11.dtd">
<svg width="100%" height="100%" viewBox="0 0 16 16" version="1.1" xmlns="http://www.w3.org/2000/svg" xmlns:xlink="http://www.w3.org/1999/xlink" xml:space="preserve" xmlns:serif="http://www.serif.com/" style="fill-rule:evenodd;clip-rule:evenodd;stroke-linejoin:round;stroke-miterlimit:2;">
    <g transform="matrix(1,0,0,1,-38,0)">
        <g id="Free-Space" serif:id="Free Space" transform="matrix(1,0,0,1,38,0)">
            <rect x="0" y="0" width="16" height="16" style="fill:none;"/>
            <g transform="matrix(1,0,0,1,-38,0)">
                <path d="M51,1L41,1L41,15L51,15L51,1ZM50,11L42,11L42,14L50,14L50,11ZM49,12L48,12L48,13L49,13L49,12ZM47,12L43,12L43,13L47,13L47,12ZM46,2C48.208,2 50,3.792 50,6C50,8.208 48.208,10 46,10C43.792,10 42,8.208 42,6C42,3.792 43.792,2 46,2ZM46,5C46.552,5 47,5.448 47,6C47,6.552 46.552,7 46,7C45.448,7 45,6.552 45,6C45,5.448 45.448,5 46,5Z" style="fill:rgb(110,110,110);"/>
            </g>
        </g>
    </g>
</svg>
