<?xml version="1.0" encoding="UTF-8" standalone="no"?>
<!DOCTYPE svg PUBLIC "-//W3C//DTD SVG 1.1//EN" "http://www.w3.org/Graphics/SVG/1.1/DTD/svg11.dtd">
<svg width="100%" height="100%" viewBox="0 0 16 16" version="1.1" xmlns="http://www.w3.org/2000/svg" xmlns:xlink="http://www.w3.org/1999/xlink" xml:space="preserve" xmlns:serif="http://www.serif.com/" style="fill-rule:evenodd;clip-rule:evenodd;stroke-linejoin:round;stroke-miterlimit:2;">
    <g transform="matrix(1,0,0,1,-95,0)">
        <g id="Server-Status---Connected" serif:id="Server Status - Connected" transform="matrix(1,0,0,1,95,0)">
            <rect x="0" y="0" width="16" height="16" style="fill:none;"/>
            <g transform="matrix(1,0,0,1,0,8)">
                <path d="M13,3L3,3L3,6L13,6L13,3ZM12,4L11,4L11,5L12,5L12,4ZM10,4L7,4L7,5L10,5L10,4Z" style="fill:rgb(110,110,110);"/>
            </g>
            <g transform="matrix(1,0,0,1,-57,0)">
                <rect x="60" y="2" width="10" height="8" style="fill:rgb(110,110,110);"/>
            </g>
            <g transform="matrix(1,0,0,1,-57,0)">
                <rect x="61" y="3" width="8" height="6" style="fill:rgb(89,168,105);"/>
            </g>
            <g transform="matrix(1.53081e-17,0.25,-4,2.44929e-16,46,-5.75)">
                <rect x="63" y="9" width="4" height="1" style="fill:rgb(110,110,110);"/>
            </g>
        </g>
    </g>
</svg>
