<?xml version="1.0" encoding="UTF-8" standalone="no"?>
<!DOCTYPE svg PUBLIC "-//W3C//DTD SVG 1.1//EN" "http://www.w3.org/Graphics/SVG/1.1/DTD/svg11.dtd">
<svg width="100%" height="100%" viewBox="0 0 16 16" version="1.1" xmlns="http://www.w3.org/2000/svg" xmlns:xlink="http://www.w3.org/1999/xlink" xml:space="preserve" xmlns:serif="http://www.serif.com/" style="fill-rule:evenodd;clip-rule:evenodd;stroke-linejoin:round;stroke-miterlimit:2;">
    <g transform="matrix(1,0,0,1,-19,0)">
        <g id="Edit" transform="matrix(1,0,0,1,-63.6667,0)">
            <rect x="82.667" y="0" width="16" height="16" style="fill:none;"/>
            <g transform="matrix(-1.11634,-1.11634,0.689211,-0.689211,64.3501,50.5034)">
                <path d="M7.25,41.246L8.5,43.246L6,43.246L7.25,41.246Z" style="fill:rgb(110,110,110);"/>
            </g>
            <g transform="matrix(1,0,0,1,82.6667,-38)">
                <path d="M3.605,47.605L6.395,50.395L11.395,45.395L8.605,42.605L3.605,47.605Z" style="fill:rgb(110,110,110);"/>
            </g>
            <g transform="matrix(-0.93028,-0.93028,0.139929,-0.139929,94.8852,18.0192)">
                <path d="M9,46.246C9,45.142 8.865,44.246 8.699,44.246L6.301,44.246C6.135,44.246 6,45.142 6,46.246L6,50.246C6,51.35 6.135,52.246 6.301,52.246L8.699,52.246C8.865,52.246 9,51.35 9,50.246L9,46.246Z" style="fill:rgb(110,110,110);"/>
            </g>
            <g transform="matrix(-0.93028,-0.93028,0.0895551,-0.0895551,96.8603,16.0441)">
                <rect x="6" y="44.246" width="3" height="8" style="fill:rgb(110,110,110);"/>
            </g>
            <g transform="matrix(0.93028,0.93028,-0.0755724,0.0755724,83.0333,1.67914)">
                <rect x="6" y="44.246" width="3" height="8" style="fill:rgb(110,110,110);"/>
            </g>
        </g>
    </g>
</svg>
