<?xml version="1.0" encoding="UTF-8" standalone="no"?>
<!DOCTYPE svg PUBLIC "-//W3C//DTD SVG 1.1//EN" "http://www.w3.org/Graphics/SVG/1.1/DTD/svg11.dtd">
<svg width="100%" height="100%" viewBox="0 0 16 16" version="1.1" xmlns="http://www.w3.org/2000/svg" xmlns:xlink="http://www.w3.org/1999/xlink" xml:space="preserve" xmlns:serif="http://www.serif.com/" style="fill-rule:evenodd;clip-rule:evenodd;stroke-linejoin:round;stroke-miterlimit:2;">
    <g transform="matrix(1,0,0,1,-114,0)">
        <g id="Chat" transform="matrix(1,0,0,1,114,0)">
            <rect x="0" y="0" width="16" height="16" style="fill:none;"/>
            <g transform="matrix(1,0,0,1.18182,-114,-0.363636)">
                <path d="M128,2L116,2L116,9.614L119.056,9.614L119.017,13L123.231,9.614L128,9.614L128,2ZM121.063,9.022L121.076,7.922L118,7.922C118,7.922 118,3.692 118,3.692L126,3.692L126,7.922C126,7.922 122.432,7.922 122.432,7.922L121.063,9.022Z" style="fill:rgb(110,110,110);"/>
            </g>
        </g>
    </g>
</svg>
