<?xml version="1.0" encoding="UTF-8" standalone="no"?>
<!DOCTYPE svg PUBLIC "-//W3C//DTD SVG 1.1//EN" "http://www.w3.org/Graphics/SVG/1.1/DTD/svg11.dtd">
<svg width="100%" height="100%" viewBox="0 0 16 16" version="1.1" xmlns="http://www.w3.org/2000/svg" xmlns:xlink="http://www.w3.org/1999/xlink" xml:space="preserve" xmlns:serif="http://www.serif.com/" style="fill-rule:evenodd;clip-rule:evenodd;stroke-linejoin:round;stroke-miterlimit:2;">
    <g transform="matrix(1,0,0,1,-190,0)">
        <g id="Impersonated-Macros" serif:id="Impersonated Macros" transform="matrix(1,0,0,1,190,0)">
            <rect x="0" y="0" width="16" height="16" style="fill:none;"/>
            <g transform="matrix(0.830133,0,0,0.830133,1.35894,-168.604)">
                <path d="M4,217.852L4,216.747C4,214.539 5.792,212.747 8,212.747C10.208,212.747 12,214.539 12,216.747L12,217.852L11,218.852L5,218.852L4,217.852ZM8,207.923C9.104,207.923 10,208.82 10,209.923C10,211.027 9.104,211.923 8,211.923C6.896,211.923 6,211.027 6,209.923C6,208.82 6.896,207.923 8,207.923Z" style="fill:rgb(56,159,214);"/>
            </g>
            <g transform="matrix(1.07692,0,0,1.07692,-205.769,-0.0769231)">
                <path d="M198.5,1C202.087,1 205,3.913 205,7.5C205,11.087 202.087,14 198.5,14C194.913,14 192,11.087 192,7.5C192,3.913 194.913,1 198.5,1ZM198.5,2.857C201.062,2.857 203.143,4.938 203.143,7.5C203.143,10.062 201.062,12.143 198.5,12.143C195.938,12.143 193.857,10.062 193.857,7.5C193.857,4.938 195.938,2.857 198.5,2.857Z" style="fill:rgb(110,110,110);"/>
            </g>
        </g>
    </g>
</svg>
