<?xml version="1.0" encoding="UTF-8" standalone="no"?>
<!DOCTYPE svg PUBLIC "-//W3C//DTD SVG 1.1//EN" "http://www.w3.org/Graphics/SVG/1.1/DTD/svg11.dtd">
<svg width="100%" height="100%" viewBox="0 0 16 16" version="1.1" xmlns="http://www.w3.org/2000/svg" xmlns:xlink="http://www.w3.org/1999/xlink" xml:space="preserve" xmlns:serif="http://www.serif.com/" style="fill-rule:evenodd;clip-rule:evenodd;stroke-miterlimit:3;">
    <g transform="matrix(1,0,0,1,-76,0)">
        <g id="Initiative" transform="matrix(1,0,0,1,76,0)">
            <rect x="0" y="0" width="16" height="16" style="fill:none;"/>
            <clipPath id="_clip1">
                <rect x="0" y="0" width="16" height="16"/>
            </clipPath>
            <g clip-path="url(#_clip1)">
                <g transform="matrix(0.333333,0,0,0.333333,-9.83333,0.166667)">
                    <circle cx="44.5" cy="11.5" r="4.5" style="fill:rgb(56,159,214);"/>
                </g>
                <g transform="matrix(0.333333,0,0,0.333333,-9.83333,4.16667)">
                    <circle cx="44.5" cy="11.5" r="4.5" style="fill:rgb(56,159,214);"/>
                </g>
                <g transform="matrix(0.333333,0,0,0.333333,-9.83333,8.16667)">
                    <circle cx="44.5" cy="11.5" r="4.5" style="fill:rgb(56,159,214);"/>
                </g>
                <g transform="matrix(0.833333,0,0,1,-62,1)">
                    <path d="M84,3L90,3" style="fill:none;stroke:rgb(110,110,110);stroke-width:2.17px;"/>
                </g>
                <g transform="matrix(0.833333,0,0,1,-62,5)">
                    <path d="M84,3L90,3" style="fill:none;stroke:rgb(110,110,110);stroke-width:2.17px;"/>
                </g>
                <g transform="matrix(0.833333,0,0,1,-62,9)">
                    <path d="M84,3L90,3" style="fill:none;stroke:rgb(110,110,110);stroke-width:2.17px;"/>
                </g>
            </g>
        </g>
    </g>
</svg>
