<?xml version="1.0" encoding="UTF-8" standalone="no"?>
<!DOCTYPE svg PUBLIC "-//W3C//DTD SVG 1.1//EN" "http://www.w3.org/Graphics/SVG/1.1/DTD/svg11.dtd">
<svg width="100%" height="100%" viewBox="0 0 16 16" version="1.1" xmlns="http://www.w3.org/2000/svg" xmlns:xlink="http://www.w3.org/1999/xlink" xml:space="preserve" xmlns:serif="http://www.serif.com/" style="fill-rule:evenodd;clip-rule:evenodd;stroke-linejoin:round;stroke-miterlimit:2;">
    <g transform="matrix(1,0,0,1,-19,0)">
        <g id="Library" transform="matrix(1,0,0,1,19,0)">
            <rect x="0" y="0" width="16" height="16" style="fill:none;"/>
            <g transform="matrix(1,0,0,1,-19,1)">
                <path d="M27,13L27,3.427C27,2.088 28.138,1 29.539,1L34,1L34,11.994L29.539,11.994C28.693,11.994 27.943,12.391 27.481,13L27,13ZM28,11.335L28,3.427C28,2.627 28.702,2 29.539,2C29.539,2 33,2 33,2C33,2 33,10.994 33,10.994C33,10.994 29.539,10.994 29.539,10.994C28.987,10.994 28.465,11.117 28,11.335Z" style="fill:rgb(110,110,110);"/>
            </g>
            <g transform="matrix(1,0,0,1,-19,1)">
                <path d="M26.519,13L27,13L27,3.427C27,2.088 25.862,1 24.461,1L20,1L20,11.994L24.461,11.994C25.307,11.994 26.057,12.391 26.519,13ZM26,11.335C25.535,11.117 25.013,10.994 24.461,10.994L21,10.994C21,10.994 21,2 21,2C21,2 24.461,2 24.461,2C25.298,2 26,2.627 26,3.427L26,11.335Z" style="fill:rgb(110,110,110);"/>
            </g>
            <g transform="matrix(1.5,0,0,1,-30,1)">
                <rect x="22" y="3" width="2" height="1" style="fill:rgb(110,110,110);"/>
            </g>
            <g transform="matrix(1.5,0,0,1,-23,1)">
                <rect x="22" y="3" width="2" height="1" style="fill:rgb(110,110,110);"/>
            </g>
            <g transform="matrix(1.5,0,0,1,-30,3)">
                <rect x="22" y="3" width="2" height="1" style="fill:rgb(110,110,110);"/>
            </g>
            <g transform="matrix(1.5,0,0,1,-23,3)">
                <rect x="22" y="3" width="2" height="1" style="fill:rgb(110,110,110);"/>
            </g>
            <g transform="matrix(1.5,0,0,1,-30,5)">
                <rect x="22" y="3" width="2" height="1" style="fill:rgb(110,110,110);"/>
            </g>
            <g transform="matrix(1.5,0,0,1,-23,5)">
                <rect x="22" y="3" width="2" height="1" style="fill:rgb(110,110,110);"/>
            </g>
            <g transform="matrix(1.5,0,0,1,-30,7)">
                <rect x="22" y="3" width="2" height="1" style="fill:rgb(110,110,110);"/>
            </g>
            <g transform="matrix(1.5,0,0,1,-23,7)">
                <rect x="22" y="3" width="2" height="1" style="fill:rgb(110,110,110);"/>
            </g>
        </g>
    </g>
</svg>
