<?xml version="1.0" encoding="UTF-8" standalone="no"?>
<!DOCTYPE svg PUBLIC "-//W3C//DTD SVG 1.1//EN" "http://www.w3.org/Graphics/SVG/1.1/DTD/svg11.dtd">
<svg width="100%" height="100%" viewBox="0 0 16 16" version="1.1" xmlns="http://www.w3.org/2000/svg" xmlns:xlink="http://www.w3.org/1999/xlink" xml:space="preserve" xmlns:serif="http://www.serif.com/" style="fill-rule:evenodd;clip-rule:evenodd;stroke-linejoin:round;stroke-miterlimit:2;">
    <g transform="matrix(1,0,0,1,-95,0)">
        <g id="Tables" transform="matrix(1,0,0,1,95,0)">
            <rect x="0" y="0" width="16" height="16" style="fill:none;"/>
            <g transform="matrix(0.714286,0,0,1,-65.5714,2)">
                <path d="M110,1L96,1L96,5L110,5L110,1ZM108.6,2L108.6,4C108.6,4 97.4,4 97.4,4C97.4,4 97.4,2 97.4,2L108.6,2Z" style="fill:rgb(110,110,110);"/>
            </g>
            <g transform="matrix(0.714286,0,0,1,-65.5714,5)">
                <path d="M110,1L96,1L96,5L110,5L110,1ZM108.6,2L108.6,4C108.6,4 97.4,4 97.4,4C97.4,4 97.4,2 97.4,2L108.6,2Z" style="fill:rgb(110,110,110);"/>
            </g>
            <g transform="matrix(0.714286,0,0,1,-65.5714,8)">
                <path d="M110,1L96,1L96,5L110,5L110,1ZM108.6,2L108.6,4C108.6,4 97.4,4 97.4,4C97.4,4 97.4,2 97.4,2L108.6,2Z" style="fill:rgb(110,110,110);"/>
            </g>
            <g transform="matrix(2.62424e-17,0.428571,-0.25,1.53081e-17,7.25,-35.1429)">
                <rect x="96" y="1" width="14" height="4" style="fill:rgb(110,110,110);"/>
            </g>
            <g transform="matrix(2.62424e-17,0.428571,-0.25,1.53081e-17,10.25,-35.1429)">
                <rect x="96" y="1" width="14" height="4" style="fill:rgb(110,110,110);"/>
            </g>
            <g transform="matrix(0.857143,0,0,0.8,-80.2857,1.2)">
                <path d="M110,1L96,1L96,16L110,16L110,1ZM108.833,2.25L108.833,14.75C108.833,14.75 97.167,14.75 97.167,14.75C97.167,14.75 97.167,2.25 97.167,2.25L108.833,2.25Z" style="fill:rgb(110,110,110);"/>
            </g>
        </g>
    </g>
</svg>
