<?xml version="1.0" encoding="UTF-8" standalone="no"?>
<!DOCTYPE svg PUBLIC "-//W3C//DTD SVG 1.1//EN" "http://www.w3.org/Graphics/SVG/1.1/DTD/svg11.dtd">
<svg width="100%" height="100%" viewBox="0 0 16 16" version="1.1" xmlns="http://www.w3.org/2000/svg" xmlns:xlink="http://www.w3.org/1999/xlink" xml:space="preserve" xmlns:serif="http://www.serif.com/" style="fill-rule:evenodd;clip-rule:evenodd;stroke-miterlimit:3;">
    <g transform="matrix(1,0,0,1,0,-152)">
        <g id="Mute---ON" serif:id="Mute - ON" transform="matrix(1,0,0,1,-90,152)">
            <rect x="90" y="0" width="16" height="16" style="fill:none;"/>
            <clipPath id="_clip1">
                <rect x="90" y="0" width="16" height="16"/>
            </clipPath>
            <g clip-path="url(#_clip1)">
                <g transform="matrix(0.806702,0,0,0.847878,89.5464,-156.9)">
                    <path d="M8,200.383L4.901,197.435L1.802,196.452L1.802,192.52L4.901,191.537L8,188.589L8,200.383ZM6.76,197.536L5.571,196.404L3.042,195.602C3.042,195.602 3.042,193.37 3.042,193.37C3.042,193.37 5.571,192.568 5.571,192.568L6.76,191.436L6.76,197.536Z" style="fill:rgb(110,110,110);"/>
                </g>
                <g transform="matrix(1,0,0,1,90,-186.229)">
                    <path d="M10.102,199.471C11.891,198.41 13.092,196.458 13.092,194.229C13.092,192.018 11.911,190.08 10.147,189.013" style="fill:none;stroke:rgb(89,168,105);stroke-width:2px;"/>
                </g>
                <g transform="matrix(1,0,0,1,90.6029,-186.229)">
                    <path d="M7.787,196.068C8.5,195.762 9,195.053 9,194.229C9,193.358 8.442,192.616 7.665,192.342" style="fill:none;stroke:rgb(89,168,105);stroke-width:2px;"/>
                </g>
            </g>
        </g>
    </g>
</svg>
